<svg width="19" height="19" viewBox="0 0 19 19" fill="none" xmlns="http://www.w3.org/2000/svg">
<path fill-rule="evenodd" clip-rule="evenodd" d="M9.5 0C14.7463 0 19 4.25366 19 9.5C19 14.7463 14.7463 19 9.5 19C4.25366 19 0 14.7463 0 9.5C0 4.25366 4.25366 0 9.5 0ZM8.18262 4.71908H9.34383C9.55567 4.71908 9.73039 4.8938 9.73039 5.10563V9.5804H13.814C14.0273 9.5804 14.2005 9.75513 14.2005 9.96696V11.1282C14.2005 11.3416 14.0258 11.5147 13.814 11.5147H7.79452V5.10563C7.79452 4.89225 7.96924 4.71908 8.18262 4.71908ZM9.5 2.15698C13.5557 2.15698 16.843 5.44425 16.843 9.5C16.843 13.5557 13.5557 16.843 9.5 16.843C5.44425 16.843 2.15698 13.5557 2.15698 9.5C2.15698 5.4458 5.44425 2.15698 9.5 2.15698Z" fill="white"/>
</svg>
