<svg width="10" height="6" viewBox="0 0 10 6" fill="none" xmlns="http://www.w3.org/2000/svg">
<path d="M9.67743 1.05589C9.3822 0.718447 8.83517 0.663514 8.45311 0.93033L4.93647 3.46508L1.41115 0.93033C1.02909 0.663514 0.490741 0.718447 0.186834 1.05589C-0.108391 1.39333 -0.0476092 1.88773 0.325763 2.16239L4.37207 5.06598C4.52837 5.18369 4.7194 5.23863 4.91042 5.23863C4.91911 5.23863 4.92779 5.23078 4.93647 5.23078C4.94516 5.23078 4.95384 5.23863 4.96252 5.23863C5.15355 5.23863 5.34458 5.18369 5.50087 5.06598L9.54718 2.16239C9.91187 1.88773 9.98133 1.39333 9.67743 1.05589Z" fill="white"/>
</svg>
