<svg width="29" height="27" viewBox="0 0 29 27" fill="none" xmlns="http://www.w3.org/2000/svg">
<path d="M0.559082 3.4601V14.6196C0.559082 14.9133 0.669141 15.1886 0.88926 15.4088C1.10938 15.6291 1.36618 15.7392 1.67802 15.7392H6.70405C6.99754 15.7392 7.27269 15.6291 7.49281 15.4088C7.71293 15.1886 7.82299 14.9316 7.82299 14.6196V3.4601C7.82299 3.16643 7.71293 2.89112 7.49281 2.67086C7.27269 2.45061 7.01589 2.34048 6.70405 2.34048H1.67802C1.38453 2.34048 1.10938 2.45061 0.88926 2.67086C0.669141 2.89112 0.559082 3.14808 0.559082 3.4601ZM2.79695 5.68099C2.79695 5.36896 2.90701 5.09365 3.12713 4.89175C3.34725 4.67149 3.60405 4.56137 3.91589 4.56137C4.20938 4.56137 4.48453 4.67149 4.70464 4.89175C4.92476 5.112 5.03482 5.36896 5.03482 5.68099C5.03482 5.97466 4.92476 6.24998 4.70464 6.47023C4.48453 6.69048 4.22772 6.80061 3.91589 6.80061C3.60405 6.80061 3.3289 6.69048 3.12713 6.47023C2.90701 6.24998 2.79695 5.99301 2.79695 5.68099ZM8.92358 3.4601V14.6379C8.92358 14.9316 9.03364 15.1886 9.23541 15.3905C9.43719 15.6107 9.69399 15.7209 9.98748 15.7392C10.2626 15.7576 10.7029 16.1063 11.3082 16.7671C11.9135 17.4278 12.5005 18.1253 13.0691 18.8778C13.8579 19.8873 14.4449 20.5848 14.8301 20.9702C15.0319 21.1721 15.2153 21.4658 15.362 21.8145C15.5088 22.1633 15.6188 22.4386 15.6739 22.6588C15.7289 22.8791 15.8023 23.2278 15.9123 23.705C15.9857 24.1639 16.0591 24.5126 16.1325 24.7696C16.1875 25.0266 16.3159 25.3202 16.481 25.669C16.6461 26.0177 16.8478 26.3114 17.068 26.5316C17.2881 26.7519 17.5449 26.862 17.8567 26.862C18.3887 26.862 18.8656 26.8069 19.2875 26.6785C19.7094 26.55 20.0579 26.4031 20.333 26.2196C20.6082 26.0361 20.8467 25.7974 21.0301 25.5221C21.2135 25.2285 21.3603 24.9715 21.452 24.7329C21.5437 24.4943 21.6171 24.219 21.6538 23.8702C21.7088 23.5215 21.7271 23.2645 21.7455 23.081V22.4019C21.7455 21.9614 21.6904 21.5209 21.5804 21.0804C21.4703 20.6398 21.3603 20.2911 21.2502 20.0342C21.1401 19.7772 20.9751 19.4468 20.7733 19.0614C20.7366 18.9879 20.6816 18.8962 20.6082 18.7493C20.5348 18.6025 20.4614 18.474 20.4248 18.3639C20.3697 18.2538 20.333 18.1069 20.278 17.9417H25.1023C26.0011 17.9417 26.7899 17.6114 27.4502 16.9506C28.1106 16.2898 28.4407 15.5006 28.4407 14.6012C28.4407 13.6101 28.1289 12.7291 27.4869 11.9949C27.652 11.481 27.7437 11.0405 27.7437 10.6734C27.7804 9.79238 27.5236 8.98479 26.9916 8.28732C27.1934 7.64491 27.1934 6.94744 26.9916 6.24998C26.8265 5.58922 26.4964 5.03858 26.0561 4.61643C26.1662 3.31327 25.8727 2.26706 25.194 1.45947C24.4419 0.578455 23.3046 0.119595 21.7638 0.10124H19.5259C18.7555 0.10124 17.9301 0.193012 17.0129 0.376558C16.1141 0.560102 15.3987 0.725292 14.9035 0.890482C14.3899 1.05567 13.6928 1.27592 12.8123 1.58795C11.3816 2.08352 10.4644 2.34048 10.0609 2.35884C9.76737 2.37719 9.49222 2.48732 9.2721 2.70757C9.03364 2.89111 8.92358 3.14808 8.92358 3.4601Z" fill="#E03C25"/>
</svg>
