<svg width="33" height="30" viewBox="0 0 33 30" fill="none" xmlns="http://www.w3.org/2000/svg">
<path d="M0.760254 26.0785V13.7645C0.760254 13.4405 0.884514 13.1367 1.13304 12.8937C1.38156 12.6506 1.6715 12.5291 2.02357 12.5291H7.69812C8.02948 12.5291 8.34014 12.6506 8.58866 12.8937C8.83718 13.1367 8.96144 13.4202 8.96144 13.7645V26.0785C8.96144 26.4025 8.83718 26.7063 8.58866 26.9493C8.34014 27.1924 8.05019 27.3139 7.69812 27.3139H2.02357C1.69221 27.3139 1.38156 27.1924 1.13304 26.9493C0.884514 26.7063 0.760254 26.4228 0.760254 26.0785ZM3.28688 23.6278C3.28688 23.9721 3.41114 24.2759 3.65966 24.4987C3.90818 24.7418 4.19812 24.8633 4.55019 24.8633C4.88156 24.8633 5.19221 24.7418 5.44073 24.4987C5.68925 24.2557 5.81351 23.9721 5.81351 23.6278C5.81351 23.3038 5.68925 23 5.44073 22.7569C5.19221 22.5139 4.90227 22.3924 4.55019 22.3924C4.19812 22.3924 3.88747 22.5139 3.65966 22.7569C3.41114 23 3.28688 23.2835 3.28688 23.6278ZM10.204 26.0785V13.7443C10.204 13.4202 10.3283 13.1367 10.5561 12.9139C10.7839 12.6709 11.0739 12.5493 11.4052 12.5291C11.7159 12.5088 12.2129 12.124 12.8963 11.3949C13.5798 10.6658 14.2425 9.89618 14.8845 9.0658C15.775 7.95188 16.4378 7.18226 16.8727 6.75694C17.1005 6.53416 17.3076 6.21011 17.4733 5.8253C17.639 5.44049 17.7632 5.13669 17.8253 4.89365C17.8875 4.65061 17.9703 4.2658 18.0946 3.73922C18.1774 3.23289 18.2603 2.84808 18.3431 2.56454C18.4052 2.28099 18.5502 1.95694 18.7366 1.57213C18.923 1.18732 19.1508 0.863271 19.3993 0.620233C19.6478 0.377195 19.9378 0.255676 20.2898 0.255676C20.8904 0.255676 21.4289 0.316436 21.9052 0.458208C22.3816 0.59998 22.775 0.762005 23.0857 0.964537C23.3963 1.16707 23.6656 1.43036 23.8727 1.73416C24.0798 2.05821 24.2455 2.34175 24.349 2.60504C24.4526 2.86833 24.5354 3.17213 24.5768 3.55694C24.639 3.94175 24.6597 4.2253 24.6804 4.42783V5.1772C24.6804 5.66327 24.6182 6.14935 24.494 6.63542C24.3697 7.1215 24.2455 7.50631 24.1212 7.78985C23.9969 8.0734 23.8105 8.43795 23.5827 8.86327C23.5413 8.94428 23.4792 9.04555 23.3963 9.20757C23.3135 9.3696 23.2307 9.51137 23.1892 9.63289C23.1271 9.75441 23.0857 9.91644 23.0236 10.0987H28.4703C29.4851 10.0987 30.3756 10.4633 31.1212 11.1924C31.8668 11.9215 32.2395 12.7924 32.2395 13.7848C32.2395 14.8785 31.8875 15.8506 31.1626 16.6607C31.349 17.2278 31.4526 17.7139 31.4526 18.119C31.494 19.0911 31.204 19.9823 30.6034 20.7519C30.8313 21.4607 30.8313 22.2304 30.6034 23C30.4171 23.7291 30.0443 24.3367 29.5472 24.8025C29.6715 26.2405 29.3401 27.3949 28.5739 28.2861C27.7248 29.2582 26.4407 29.7645 24.7011 29.7848H22.1745C21.3046 29.7848 20.3727 29.6835 19.3372 29.481C18.3224 29.2785 17.5147 29.0962 16.9555 28.9139C16.3756 28.7316 15.5887 28.4886 14.5946 28.1443C12.9792 27.5974 11.9437 27.3139 11.4881 27.2936C11.1567 27.2734 10.8461 27.1519 10.5975 26.9088C10.3283 26.7063 10.204 26.4228 10.204 26.0785Z" fill="#2587E0"/>
</svg>
