<svg viewBox="0 0 140 140" fill="none" xmlns="http://www.w3.org/2000/svg">
<path d="M70 0C31.3402 0 0 31.3402 0 70C0 108.66 31.3402 140 70 140C108.66 140 140 108.66 140 70C140 31.3402 108.66 0 70 0ZM94.6424 73.0962L60.5532 96.3026C59.4061 97.0834 57.921 97.1661 56.6942 96.5173C55.4675 95.8683 54.7 94.5943 54.7 93.2065V46.7935C54.7 45.4058 55.4675 44.1317 56.6942 43.4827C57.921 42.8339 59.4061 42.9163 60.5532 43.6974L94.6424 66.9038C95.667 67.6014 96.2803 68.7604 96.2803 70C96.2803 71.2396 95.6673 72.3986 94.6424 73.0962Z" fill="white" fill-opacity="0.3"/>
</svg>
