<svg viewBox="0 0 26 26" fill="none" xmlns="http://www.w3.org/2000/svg">
<g clip-path="url(#clip0_195_880)">
<path d="M10.7264 0.5H10.7296V0.501461C13.527 0.502296 16.06 1.67029 17.893 3.55762C19.723 5.44224 20.8566 8.04743 20.8584 10.9248H20.8598V10.9316V10.94H20.8584C20.8574 12.0996 20.6725 13.2157 20.3325 14.2564C20.2756 14.431 20.216 14.5988 20.1548 14.7591V14.7606C19.8616 15.5243 19.4827 16.2464 19.0303 16.9114L24.9258 22.3662L24.9295 22.3695L24.9613 22.4L24.9635 22.4023C25.2964 22.7285 25.4776 23.1653 25.5005 23.6085C25.5228 24.0467 25.3904 24.495 25.0993 24.8545L25.0971 24.8579L25.0616 24.9002L25.0545 24.9075L25.0249 24.9409L25.0217 24.9453C24.7044 25.288 24.2809 25.4741 23.85 25.4975C23.4249 25.5207 22.989 25.3848 22.6395 25.0847L22.6365 25.0824L22.5951 25.0459L22.5892 25.0409L16.5593 19.462C16.3809 19.5914 16.1989 19.7143 16.0146 19.8303C15.7646 19.9879 15.5058 20.1362 15.2416 20.2717C13.8836 20.9691 12.349 21.3614 10.7266 21.3614V21.3629H10.7234V21.3614C7.92601 21.3606 5.3926 20.1926 3.5596 18.3052C1.72903 16.4206 0.596017 13.815 0.594192 10.9385H0.592773V10.9316V10.9283H0.594192C0.595003 8.04869 1.72963 5.44078 3.56304 3.55387C5.39382 1.67029 7.92459 0.503339 10.7197 0.501461V0.5H10.7264ZM10.7296 2.83934V2.8408H10.7264H10.7197V2.83934C8.55343 2.8408 6.58987 3.74711 5.16839 5.20976C3.74712 6.67242 2.86589 8.69581 2.86528 10.9285H2.8667V10.9318V10.9387H2.86528C2.8667 13.1687 3.74651 15.189 5.16799 16.6527C6.58886 18.116 8.55445 19.0231 10.7232 19.0235V19.0221H10.7264H10.7331V19.0235C12.8994 19.0221 14.8621 18.1162 16.284 16.6531C17.7053 15.1904 18.5865 13.1677 18.5869 10.9352H18.5857V10.9318V10.925H18.5869C18.5857 8.69498 17.7051 6.67367 16.2844 5.21039C14.8635 3.74711 12.8986 2.83996 10.7296 2.83934Z" fill="black"/>
</g>
<defs>
<clipPath id="clip0_195_880">
<rect width="24.9102" height="25" fill="white" transform="translate(0.592773 0.5)"/>
</clipPath>
</defs>
</svg>
