<svg  viewBox="0 0 24 18" fill="none" xmlns="http://www.w3.org/2000/svg">
<path d="M12.0007 13.1763C14.3636 13.1763 16.2859 11.2765 16.2859 8.94117C16.2859 6.60586 14.3636 4.70603 12.0007 4.70603C9.63773 4.70603 7.71544 6.60586 7.71544 8.94117C7.71512 11.2765 9.63773 13.1763 12.0007 13.1763ZM12.0007 6.82344C13.1821 6.82344 14.1434 7.77351 14.1434 8.94117C14.1434 10.1088 13.1821 11.0589 12.0007 11.0589C10.8192 11.0589 9.85789 10.1088 9.85789 8.94117C9.85789 7.77351 10.8192 6.82344 12.0007 6.82344Z" fill="black"/>
<path d="M12 17.4118C14.559 17.4118 16.9929 16.6148 19.039 15.1069C20.0228 14.3818 20.8832 13.514 21.596 12.527C22.3188 11.5268 22.8736 10.4271 23.2451 9.2585C23.3107 9.05203 23.3107 8.83031 23.2451 8.62385C22.8739 7.45524 22.3188 6.35587 21.596 5.3553C20.8828 4.3687 20.0224 3.50058 19.039 2.7754C16.9929 1.26755 14.559 0.470581 12 0.470581C9.44103 0.470581 7.00708 1.26755 4.96138 2.77572C3.97757 3.5009 3.11719 4.3687 2.40433 5.35561C1.6815 6.35587 1.12677 7.45555 0.755229 8.62416C0.689663 8.83063 0.689663 9.05234 0.755229 9.25881C1.12644 10.4274 1.6815 11.5268 2.40433 12.5274C3.11751 13.514 3.9779 14.3821 4.96138 15.1073C7.00708 16.6145 9.44103 17.4118 12 17.4118ZM21.094 8.94117C19.7348 12.7551 16.1223 15.294 12 15.294C7.87807 15.294 4.26523 12.7551 2.90603 8.94117C4.26523 5.12723 7.87807 2.58831 12 2.58831C16.1223 2.58831 19.7348 5.12723 21.094 8.94117Z" fill="black"/>
</svg>
