<svg width="20" height="20" viewBox="0 0 20 20" fill="none" xmlns="http://www.w3.org/2000/svg">
<path d="M4.68335 19.1666H15.3165C16.4514 19.1666 17.0768 19.1666 17.665 18.8668C18.1859 18.6015 18.6014 18.1859 18.8668 17.6651C19.1665 17.0769 19.1665 16.4515 19.1665 15.3166V6.51658C19.1665 5.38166 19.1665 4.75631 18.8668 4.16808C18.6014 3.64723 18.1859 3.23171 17.665 2.96634C17.1092 2.68308 16.5205 2.66741 15.4999 2.66659V1.75001C15.4999 1.24374 15.0896 0.833435 14.5834 0.833435C14.0771 0.833435 13.6668 1.24374 13.6668 1.75001V2.66659H6.33335V1.75001C6.33335 1.24374 5.92305 0.833435 5.41678 0.833435C4.9105 0.833435 4.49993 1.24374 4.49993 1.75001V2.66659C3.4794 2.66741 2.89063 2.68308 2.33485 2.96634C1.814 3.23171 1.39848 3.64723 1.1331 4.16808C0.833353 4.75631 0.833353 5.38138 0.833353 6.51658V15.3166C0.833353 16.4515 0.833353 17.0769 1.1331 17.6651C1.39848 18.1859 1.814 18.6015 2.33485 18.8668C2.92308 19.1666 3.54815 19.1666 4.68335 19.1666ZM17.3334 8.16658V15.3166C17.3334 16.1116 17.3334 16.6366 17.2335 16.8327C17.145 17.0062 17.0067 17.1448 16.8329 17.2333C16.6368 17.3332 16.1115 17.3332 15.3165 17.3332H4.68308C3.88805 17.3332 3.36308 17.3332 3.167 17.2333C2.9932 17.1448 2.85488 17.0065 2.76633 16.8329C2.6665 16.6369 2.6665 16.1116 2.6665 15.3166V8.16658H17.3334ZM17.3334 6.33344H2.66678C2.66733 5.64099 2.67475 5.18118 2.7666 5.00051C2.85515 4.82699 2.99348 4.68839 3.16728 4.59984C3.36335 4.50001 3.8886 4.50001 4.68335 4.50001H15.3165C16.1115 4.50001 16.6365 4.50001 16.8326 4.59984C17.0061 4.68839 17.1447 4.82671 17.2333 5.00051C17.3254 5.18118 17.3325 5.64099 17.3334 6.33344ZM11.5278 15.5006L14.5834 15.5C15.0896 15.5 15.4999 15.0894 15.4999 14.5832C15.4999 14.0769 15.0894 13.6666 14.5834 13.6666C14.5834 13.6666 14.5834 13.6666 14.5831 13.6666L11.5276 13.6671C11.0213 13.6671 10.611 14.0777 10.611 14.584C10.6113 15.0903 11.0216 15.5006 11.5278 15.5006ZM5.4165 11.8345L14.5834 11.8332C15.0896 11.8332 15.4999 11.4226 15.4999 10.9163C15.4999 10.41 15.0894 9.99973 14.5834 9.99973L5.41678 10.0011C4.9105 10.0011 4.5002 10.4117 4.5002 10.918C4.49993 11.4242 4.9105 11.8345 5.4165 11.8345Z" fill="black"/>
</svg>
