<svg  viewBox="0 0 21 21" fill="none" xmlns="http://www.w3.org/2000/svg">
<path fill-rule="evenodd" clip-rule="evenodd" d="M10.3774 0C16.1082 0 20.7547 4.6465 20.7547 10.3774C20.7547 16.1082 16.1082 20.7547 10.3774 20.7547C4.6465 20.7547 0 16.1082 0 10.3774C0 4.6465 4.6465 0 10.3774 0ZM8.93831 5.1549H10.2068C10.4382 5.1549 10.629 5.34576 10.629 5.57715V10.4652H15.0897C15.3228 10.4652 15.512 10.656 15.512 10.8874V12.1559C15.512 12.389 15.3211 12.5782 15.0897 12.5782H8.51437V5.57715C8.51437 5.34407 8.70522 5.1549 8.93831 5.1549ZM10.3774 2.35619C14.8077 2.35619 18.3985 5.94705 18.3985 10.3774C18.3985 14.8077 14.8077 18.3985 10.3774 18.3985C5.94705 18.3985 2.35619 14.8077 2.35619 10.3774C2.35619 5.94874 5.94705 2.35619 10.3774 2.35619Z" fill="black"/>
</svg>
