<svg width="247" height="34" viewBox="0 0 247 34" fill="none" xmlns="http://www.w3.org/2000/svg">
<path d="M7.524 8.388H0.144V1.8H23.4V8.388H16.02V27H7.524V8.388ZM44.3379 17.136C44.3379 17.256 44.3019 17.892 44.2299 19.044H30.5499C30.8379 19.788 31.3179 20.364 31.9899 20.772C32.6619 21.156 33.5019 21.348 34.5099 21.348C35.3739 21.348 36.0939 21.24 36.6699 21.024C37.2699 20.808 37.9179 20.436 38.6139 19.908L42.8619 24.192C40.9419 26.304 38.0739 27.36 34.2579 27.36C31.8819 27.36 29.7939 26.928 27.9939 26.064C26.1939 25.176 24.8019 23.952 23.8179 22.392C22.8339 20.832 22.3419 19.08 22.3419 17.136C22.3419 15.168 22.8219 13.416 23.7819 11.88C24.7659 10.32 26.0979 9.108 27.7779 8.244C29.4819 7.38 31.3899 6.948 33.5019 6.948C35.4939 6.948 37.3059 7.344 38.9379 8.136C40.5939 8.928 41.9019 10.092 42.8619 11.628C43.8459 13.164 44.3379 15 44.3379 17.136ZM33.5739 12.492C32.7339 12.492 32.0379 12.72 31.4859 13.176C30.9339 13.632 30.5739 14.28 30.4059 15.12H36.7419C36.5739 14.304 36.2139 13.668 35.6619 13.212C35.1099 12.732 34.4139 12.492 33.5739 12.492ZM72.9695 6.948C75.3455 6.948 77.2415 7.68 78.6575 9.144C80.0975 10.608 80.8175 12.816 80.8175 15.768V27H72.6815V17.172C72.6815 14.916 71.9495 13.788 70.4855 13.788C69.7175 13.788 69.0935 14.076 68.6135 14.652C68.1575 15.228 67.9295 16.14 67.9295 17.388V27H59.7935V17.172C59.7935 14.916 59.0615 13.788 57.5975 13.788C56.8295 13.788 56.2055 14.076 55.7255 14.652C55.2695 15.228 55.0415 16.14 55.0415 17.388V27H46.9055V7.308H54.6455V9.144C56.1095 7.68 57.9695 6.948 60.2255 6.948C61.5455 6.948 62.7335 7.2 63.7895 7.704C64.8455 8.184 65.7095 8.928 66.3815 9.936C67.1735 8.976 68.1335 8.244 69.2615 7.74C70.3895 7.212 71.6255 6.948 72.9695 6.948ZM97.4869 6.948C99.2149 6.948 100.799 7.368 102.239 8.208C103.703 9.024 104.855 10.212 105.695 11.772C106.559 13.332 106.991 15.132 106.991 17.172C106.991 19.212 106.559 21.012 105.695 22.572C104.855 24.108 103.703 25.296 102.239 26.136C100.799 26.952 99.2149 27.36 97.4869 27.36C95.3029 27.36 93.6349 26.796 92.4829 25.668V33.984H84.3469V7.308H92.0869V8.928C93.2629 7.608 95.0629 6.948 97.4869 6.948ZM95.5429 21.024C96.4789 21.024 97.2469 20.688 97.8469 20.016C98.4469 19.344 98.7469 18.396 98.7469 17.172C98.7469 15.948 98.4469 15 97.8469 14.328C97.2469 13.632 96.4789 13.284 95.5429 13.284C94.6069 13.284 93.8389 13.632 93.2389 14.328C92.6389 15 92.3389 15.948 92.3389 17.172C92.3389 18.396 92.6389 19.344 93.2389 20.016C93.8389 20.688 94.6069 21.024 95.5429 21.024ZM109.554 0.287998H117.69V27H109.554V0.287998ZM130.116 6.948C133.572 6.948 136.212 7.728 138.036 9.288C139.86 10.824 140.772 13.2 140.772 16.416V27H133.212V24.408C132.276 26.376 130.416 27.36 127.632 27.36C126.072 27.36 124.74 27.096 123.636 26.568C122.556 26.016 121.728 25.284 121.152 24.372C120.6 23.436 120.324 22.392 120.324 21.24C120.324 19.296 121.068 17.82 122.556 16.812C124.044 15.804 126.3 15.3 129.324 15.3H132.6C132.336 13.764 131.1 12.996 128.892 12.996C128.004 12.996 127.104 13.14 126.192 13.428C125.28 13.692 124.5 14.064 123.852 14.544L121.26 9.18C122.388 8.484 123.744 7.944 125.328 7.56C126.936 7.152 128.532 6.948 130.116 6.948ZM130.08 22.464C130.656 22.464 131.172 22.308 131.628 21.996C132.084 21.684 132.42 21.216 132.636 20.592V19.224H130.62C128.964 19.224 128.136 19.776 128.136 20.88C128.136 21.336 128.304 21.72 128.64 22.032C129 22.32 129.48 22.464 130.08 22.464ZM158.796 26.316C157.572 27.012 155.904 27.36 153.792 27.36C151.032 27.36 148.908 26.7 147.42 25.38C145.932 24.036 145.188 22.032 145.188 19.368V14.328H142.488V8.388H145.188V2.88H153.324V8.388H157.356V14.328H153.324V19.296C153.324 19.896 153.48 20.364 153.792 20.7C154.104 21.036 154.512 21.204 155.016 21.204C155.712 21.204 156.324 21.024 156.852 20.664L158.796 26.316ZM181.272 17.136C181.272 17.256 181.236 17.892 181.164 19.044H167.484C167.772 19.788 168.252 20.364 168.924 20.772C169.596 21.156 170.436 21.348 171.444 21.348C172.308 21.348 173.028 21.24 173.604 21.024C174.204 20.808 174.852 20.436 175.548 19.908L179.796 24.192C177.876 26.304 175.008 27.36 171.192 27.36C168.816 27.36 166.728 26.928 164.928 26.064C163.128 25.176 161.736 23.952 160.752 22.392C159.768 20.832 159.276 19.08 159.276 17.136C159.276 15.168 159.756 13.416 160.716 11.88C161.7 10.32 163.032 9.108 164.712 8.244C166.416 7.38 168.324 6.948 170.436 6.948C172.428 6.948 174.24 7.344 175.872 8.136C177.528 8.928 178.836 10.092 179.796 11.628C180.78 13.164 181.272 15 181.272 17.136ZM170.508 12.492C169.668 12.492 168.972 12.72 168.42 13.176C167.868 13.632 167.508 14.28 167.34 15.12H173.676C173.508 14.304 173.148 13.668 172.596 13.212C172.044 12.732 171.348 12.492 170.508 12.492Z" fill="var(--main-color)"/>
<path d="M210.316 1.8L199.66 27H191.308L180.652 1.8H189.796L195.808 16.524L201.964 1.8H210.316ZM221.179 27.576C218.947 27.576 216.967 27.06 215.239 26.028C213.535 24.972 212.191 23.46 211.207 21.492C210.247 19.5 209.767 17.136 209.767 14.4C209.767 11.664 210.247 9.312 211.207 7.344C212.191 5.352 213.535 3.84 215.239 2.808C216.967 1.752 218.947 1.224 221.179 1.224C223.411 1.224 225.379 1.752 227.083 2.808C228.811 3.84 230.155 5.352 231.115 7.344C232.099 9.312 232.591 11.664 232.591 14.4C232.591 17.136 232.099 19.5 231.115 21.492C230.155 23.46 228.811 24.972 227.083 26.028C225.379 27.06 223.411 27.576 221.179 27.576ZM221.179 20.772C223.099 20.772 224.059 18.648 224.059 14.4C224.059 10.152 223.099 8.028 221.179 8.028C219.259 8.028 218.299 10.152 218.299 14.4C218.299 18.648 219.259 20.772 221.179 20.772ZM246.293 1.8V27H237.797V8.208H233.477V1.8H246.293Z" fill="white"/>
</svg>
